<svg version="1.2" xmlns="http://www.w3.org/2000/svg" viewBox="0 0 123 123" width="123" height="123"><defs><clipPath clipPathUnits="userSpaceOnUse" id="cp1"><path d="m-84-269h1512v7281h-1512z"/></clipPath></defs><style>.a{opacity:.2;fill:#81818b}</style><g clip-path="url(#cp1)"><path class="a" d="m5.8 0.4c2.8 0 5 2.3 5 5 0 2.8-2.2 5-5 5-2.7 0-5-2.2-5-5 0-2.7 2.3-5 5-5z"/><path class="a" d="m21.8 0.4c2.8 0 5 2.3 5 5 0 2.8-2.2 5-5 5-2.7 0-5-2.2-5-5 0-2.7 2.3-5 5-5z"/><path class="a" d="m37.8 0.4c2.8 0 5 2.3 5 5 0 2.8-2.2 5-5 5-2.7 0-5-2.2-5-5 0-2.7 2.3-5 5-5z"/><path class="a" d="m53.8 0.4c2.8 0 5 2.3 5 5 0 2.8-2.2 5-5 5-2.7 0-5-2.2-5-5 0-2.7 2.3-5 5-5z"/><path class="a" d="m69.8 0.4c2.8 0 5 2.3 5 5 0 2.8-2.2 5-5 5-2.7 0-5-2.2-5-5 0-2.7 2.3-5 5-5z"/><path class="a" d="m85.8 0.4c2.8 0 5 2.3 5 5 0 2.8-2.2 5-5 5-2.7 0-5-2.2-5-5 0-2.7 2.3-5 5-5z"/><path class="a" d="m101.8 0.4c2.8 0 5 2.3 5 5 0 2.8-2.2 5-5 5-2.7 0-5-2.2-5-5 0-2.7 2.3-5 5-5z"/><path class="a" d="m117.8 0.4c2.8 0 5 2.3 5 5 0 2.8-2.2 5-5 5-2.7 0-5-2.2-5-5 0-2.7 2.3-5 5-5z"/><path class="a" d="m5.8 16.4c2.8 0 5 2.3 5 5 0 2.8-2.2 5-5 5-2.7 0-5-2.2-5-5 0-2.7 2.3-5 5-5z"/><path class="a" d="m21.8 16.4c2.8 0 5 2.3 5 5 0 2.8-2.2 5-5 5-2.7 0-5-2.2-5-5 0-2.7 2.3-5 5-5z"/><path class="a" d="m37.8 16.4c2.8 0 5 2.3 5 5 0 2.8-2.2 5-5 5-2.7 0-5-2.2-5-5 0-2.7 2.3-5 5-5z"/><path class="a" d="m53.8 16.4c2.8 0 5 2.3 5 5 0 2.8-2.2 5-5 5-2.7 0-5-2.2-5-5 0-2.7 2.3-5 5-5z"/><path class="a" d="m69.8 16.4c2.8 0 5 2.3 5 5 0 2.8-2.2 5-5 5-2.7 0-5-2.2-5-5 0-2.7 2.3-5 5-5z"/><path class="a" d="m85.8 16.4c2.8 0 5 2.3 5 5 0 2.8-2.2 5-5 5-2.7 0-5-2.2-5-5 0-2.7 2.3-5 5-5z"/><path class="a" d="m101.8 16.4c2.8 0 5 2.3 5 5 0 2.8-2.2 5-5 5-2.7 0-5-2.2-5-5 0-2.7 2.3-5 5-5z"/><path class="a" d="m117.8 16.4c2.8 0 5 2.3 5 5 0 2.8-2.2 5-5 5-2.7 0-5-2.2-5-5 0-2.7 2.3-5 5-5z"/><path class="a" d="m5.8 32.4c2.8 0 5 2.3 5 5 0 2.8-2.2 5-5 5-2.7 0-5-2.2-5-5 0-2.7 2.3-5 5-5z"/><path class="a" d="m21.8 32.4c2.8 0 5 2.3 5 5 0 2.8-2.2 5-5 5-2.7 0-5-2.2-5-5 0-2.7 2.3-5 5-5z"/><path class="a" d="m37.8 32.4c2.8 0 5 2.3 5 5 0 2.8-2.2 5-5 5-2.7 0-5-2.2-5-5 0-2.7 2.3-5 5-5z"/><path class="a" d="m53.8 32.4c2.8 0 5 2.3 5 5 0 2.8-2.2 5-5 5-2.7 0-5-2.2-5-5 0-2.7 2.3-5 5-5z"/><path class="a" d="m69.8 32.4c2.8 0 5 2.3 5 5 0 2.8-2.2 5-5 5-2.7 0-5-2.2-5-5 0-2.7 2.3-5 5-5z"/><path class="a" d="m85.8 32.4c2.8 0 5 2.3 5 5 0 2.8-2.2 5-5 5-2.7 0-5-2.2-5-5 0-2.7 2.3-5 5-5z"/><path class="a" d="m101.8 32.4c2.8 0 5 2.3 5 5 0 2.8-2.2 5-5 5-2.7 0-5-2.2-5-5 0-2.7 2.3-5 5-5z"/><path class="a" d="m117.8 32.4c2.8 0 5 2.3 5 5 0 2.8-2.2 5-5 5-2.7 0-5-2.2-5-5 0-2.7 2.3-5 5-5z"/><path class="a" d="m5.8 48.4c2.8 0 5 2.3 5 5 0 2.8-2.2 5-5 5-2.7 0-5-2.2-5-5 0-2.7 2.3-5 5-5z"/><path class="a" d="m21.8 48.4c2.8 0 5 2.3 5 5 0 2.8-2.2 5-5 5-2.7 0-5-2.2-5-5 0-2.7 2.3-5 5-5z"/><path class="a" d="m37.8 48.4c2.8 0 5 2.3 5 5 0 2.8-2.2 5-5 5-2.7 0-5-2.2-5-5 0-2.7 2.3-5 5-5z"/><path class="a" d="m53.8 48.4c2.8 0 5 2.3 5 5 0 2.8-2.2 5-5 5-2.7 0-5-2.2-5-5 0-2.7 2.3-5 5-5z"/><path class="a" d="m69.8 48.4c2.8 0 5 2.3 5 5 0 2.8-2.2 5-5 5-2.7 0-5-2.2-5-5 0-2.7 2.3-5 5-5z"/><path class="a" d="m85.8 48.4c2.8 0 5 2.3 5 5 0 2.8-2.2 5-5 5-2.7 0-5-2.2-5-5 0-2.7 2.3-5 5-5z"/><path class="a" d="m101.8 48.4c2.8 0 5 2.3 5 5 0 2.8-2.2 5-5 5-2.7 0-5-2.2-5-5 0-2.7 2.3-5 5-5z"/><path class="a" d="m117.8 48.4c2.8 0 5 2.3 5 5 0 2.8-2.2 5-5 5-2.7 0-5-2.2-5-5 0-2.7 2.3-5 5-5z"/><path class="a" d="m5.8 64.4c2.8 0 5 2.3 5 5 0 2.8-2.2 5-5 5-2.7 0-5-2.2-5-5 0-2.7 2.3-5 5-5z"/><path class="a" d="m21.8 64.4c2.8 0 5 2.3 5 5 0 2.8-2.2 5-5 5-2.7 0-5-2.2-5-5 0-2.7 2.3-5 5-5z"/><path class="a" d="m37.8 64.4c2.8 0 5 2.3 5 5 0 2.8-2.2 5-5 5-2.7 0-5-2.2-5-5 0-2.7 2.3-5 5-5z"/><path class="a" d="m53.8 64.4c2.8 0 5 2.3 5 5 0 2.8-2.2 5-5 5-2.7 0-5-2.2-5-5 0-2.7 2.3-5 5-5z"/><path class="a" d="m69.8 64.4c2.8 0 5 2.3 5 5 0 2.8-2.2 5-5 5-2.7 0-5-2.2-5-5 0-2.7 2.3-5 5-5z"/><path class="a" d="m85.8 64.4c2.8 0 5 2.3 5 5 0 2.8-2.2 5-5 5-2.7 0-5-2.2-5-5 0-2.7 2.3-5 5-5z"/><path class="a" d="m101.8 64.4c2.8 0 5 2.3 5 5 0 2.8-2.2 5-5 5-2.7 0-5-2.2-5-5 0-2.7 2.3-5 5-5z"/><path class="a" d="m117.8 64.4c2.8 0 5 2.3 5 5 0 2.8-2.2 5-5 5-2.7 0-5-2.2-5-5 0-2.7 2.3-5 5-5z"/><path class="a" d="m5.8 80.4c2.8 0 5 2.3 5 5 0 2.8-2.2 5-5 5-2.7 0-5-2.2-5-5 0-2.7 2.3-5 5-5z"/><path class="a" d="m21.8 80.4c2.8 0 5 2.3 5 5 0 2.8-2.2 5-5 5-2.7 0-5-2.2-5-5 0-2.7 2.3-5 5-5z"/><path class="a" d="m37.8 80.4c2.8 0 5 2.3 5 5 0 2.8-2.2 5-5 5-2.7 0-5-2.2-5-5 0-2.7 2.3-5 5-5z"/><path class="a" d="m53.8 80.4c2.8 0 5 2.3 5 5 0 2.8-2.2 5-5 5-2.7 0-5-2.2-5-5 0-2.7 2.3-5 5-5z"/><path class="a" d="m69.8 80.4c2.8 0 5 2.3 5 5 0 2.8-2.2 5-5 5-2.7 0-5-2.2-5-5 0-2.7 2.3-5 5-5z"/><path class="a" d="m85.8 80.4c2.8 0 5 2.3 5 5 0 2.8-2.2 5-5 5-2.7 0-5-2.2-5-5 0-2.7 2.3-5 5-5z"/><path class="a" d="m101.8 80.4c2.8 0 5 2.3 5 5 0 2.8-2.2 5-5 5-2.7 0-5-2.2-5-5 0-2.7 2.3-5 5-5z"/><path class="a" d="m117.8 80.4c2.8 0 5 2.3 5 5 0 2.8-2.2 5-5 5-2.7 0-5-2.2-5-5 0-2.7 2.3-5 5-5z"/><path class="a" d="m5.8 96.4c2.8 0 5 2.3 5 5 0 2.8-2.2 5-5 5-2.7 0-5-2.2-5-5 0-2.7 2.3-5 5-5z"/><path class="a" d="m21.8 96.4c2.8 0 5 2.3 5 5 0 2.8-2.2 5-5 5-2.7 0-5-2.2-5-5 0-2.7 2.3-5 5-5z"/><path class="a" d="m37.8 96.4c2.8 0 5 2.3 5 5 0 2.8-2.2 5-5 5-2.7 0-5-2.2-5-5 0-2.7 2.3-5 5-5z"/><path class="a" d="m53.8 96.4c2.8 0 5 2.3 5 5 0 2.8-2.2 5-5 5-2.7 0-5-2.2-5-5 0-2.7 2.3-5 5-5z"/><path class="a" d="m69.8 96.4c2.8 0 5 2.3 5 5 0 2.8-2.2 5-5 5-2.7 0-5-2.2-5-5 0-2.7 2.3-5 5-5z"/><path class="a" d="m85.8 96.4c2.8 0 5 2.3 5 5 0 2.8-2.2 5-5 5-2.7 0-5-2.2-5-5 0-2.7 2.3-5 5-5z"/><path class="a" d="m101.8 96.4c2.8 0 5 2.3 5 5 0 2.8-2.2 5-5 5-2.7 0-5-2.2-5-5 0-2.7 2.3-5 5-5z"/><path class="a" d="m117.8 96.4c2.8 0 5 2.3 5 5 0 2.8-2.2 5-5 5-2.7 0-5-2.2-5-5 0-2.7 2.3-5 5-5z"/><path class="a" d="m5.8 112.4c2.8 0 5 2.3 5 5 0 2.8-2.2 5-5 5-2.7 0-5-2.2-5-5 0-2.7 2.3-5 5-5z"/><path class="a" d="m21.8 112.4c2.8 0 5 2.3 5 5 0 2.8-2.2 5-5 5-2.7 0-5-2.2-5-5 0-2.7 2.3-5 5-5z"/><path class="a" d="m37.8 112.4c2.8 0 5 2.3 5 5 0 2.8-2.2 5-5 5-2.7 0-5-2.2-5-5 0-2.7 2.3-5 5-5z"/><path class="a" d="m53.8 112.4c2.8 0 5 2.3 5 5 0 2.8-2.2 5-5 5-2.7 0-5-2.2-5-5 0-2.7 2.3-5 5-5z"/><path class="a" d="m69.8 112.4c2.8 0 5 2.3 5 5 0 2.8-2.2 5-5 5-2.7 0-5-2.2-5-5 0-2.7 2.3-5 5-5z"/><path class="a" d="m85.8 112.4c2.8 0 5 2.3 5 5 0 2.8-2.2 5-5 5-2.7 0-5-2.2-5-5 0-2.7 2.3-5 5-5z"/><path class="a" d="m101.8 112.4c2.8 0 5 2.3 5 5 0 2.8-2.2 5-5 5-2.7 0-5-2.2-5-5 0-2.7 2.3-5 5-5z"/><path class="a" d="m117.8 112.4c2.8 0 5 2.3 5 5 0 2.8-2.2 5-5 5-2.7 0-5-2.2-5-5 0-2.7 2.3-5 5-5z"/></g></svg>